<svg width="747" height="508" viewBox="0 0 747 508" fill="none" xmlns="http://www.w3.org/2000/svg">
<g clip-path="url(#clip0)">
<path opacity="0.1" d="M440 500.516C389.508 472.596 331.829 463.673 275.461 475.64C195.586 492.608 95.1983 485.957 75.7536 355.049C42.5445 131.476 181.71 72.467 181.71 72.467C181.71 72.467 274.255 64.7226 328.979 35.2377C406.712 -6.65925 495.562 -11.9946 573.688 23.4542C623.649 46.1047 664.792 77.6452 671.822 120.95C691.476 242.058 659.197 308.785 719.582 348.319C779.966 387.853 728.361 496.392 682.068 492.634C635.776 488.876 531.169 447.654 490.406 495.403C475.928 512.339 457.61 510.257 440 500.516Z" fill="#37ADCA"/>
<path opacity="0.1" d="M200.434 98.3334H408.77V112.735H200.434V98.3334Z" fill="#37ADCA"/>
<path opacity="0.1" d="M200.434 160.524H408.77V174.926H200.434V160.524Z" fill="#37ADCA"/>
<path opacity="0.1" d="M200.434 225.333H408.77V239.735H200.434V225.333Z" fill="#37ADCA"/>
<path opacity="0.1" d="M377.323 61.0189H390.426V98.3334H377.323V61.0189Z" fill="#37ADCA"/>
<path opacity="0.1" d="M377.323 66.9107H390.426V69.5292H377.323V66.9107Z" fill="#37ADCA"/>
<path opacity="0.1" d="M377.323 87.2045H390.426V89.823H377.323V87.2045Z" fill="#37ADCA"/>
<path opacity="0.1" d="M357.668 61.0189H370.771V98.3334H357.668V61.0189Z" fill="#37ADCA"/>
<path opacity="0.1" d="M357.668 66.9107H370.771V69.5292H357.668V66.9107Z" fill="#37ADCA"/>
<path opacity="0.1" d="M357.668 87.2045H370.771V89.823H357.668V87.2045Z" fill="#37ADCA"/>
<path opacity="0.1" d="M338.014 61.0189H351.117V98.3334H338.014V61.0189Z" fill="#37ADCA"/>
<path opacity="0.1" d="M338.014 66.9107H351.117V69.5292H338.014V66.9107Z" fill="#37ADCA"/>
<path opacity="0.1" d="M338.014 87.2045H351.117V89.823H338.014V87.2045Z" fill="#37ADCA"/>
<path opacity="0.1" d="M318.36 61.0189H331.463V98.3334H318.36V61.0189Z" fill="#37ADCA"/>
<path opacity="0.1" d="M318.36 66.9107H331.463V69.5292H318.36V66.9107Z" fill="#37ADCA"/>
<path opacity="0.1" d="M318.36 87.2045H331.463V89.823H318.36V87.2045Z" fill="#37ADCA"/>
<path opacity="0.1" d="M298.706 61.0189H311.809V98.3334H298.706V61.0189Z" fill="#37ADCA"/>
<path opacity="0.1" d="M298.706 66.9107H311.809V69.5292H298.706V66.9107Z" fill="#37ADCA"/>
<path opacity="0.1" d="M298.706 87.2045H311.809V89.823H298.706V87.2045Z" fill="#37ADCA"/>
<path opacity="0.1" d="M279.051 61.0189H292.154V98.3334H279.051V61.0189Z" fill="#37ADCA"/>
<path opacity="0.1" d="M279.051 66.9107H292.154V69.5292H279.051V66.9107Z" fill="#37ADCA"/>
<path opacity="0.1" d="M279.051 87.2045H292.154V89.823H279.051V87.2045Z" fill="#37ADCA"/>
<path opacity="0.1" d="M259.397 61.0189H272.5V98.3334H259.397V61.0189Z" fill="#37ADCA"/>
<path opacity="0.1" d="M259.397 66.9107H272.5V69.5292H259.397V66.9107Z" fill="#37ADCA"/>
<path opacity="0.1" d="M259.397 87.2045H272.5V89.823H259.397V87.2045Z" fill="#37ADCA"/>
<path opacity="0.1" d="M267.154 187.037L278.867 192.905L262.129 226.261L250.416 220.393L267.154 187.037Z" fill="#37ADCA"/>
<path opacity="0.1" d="M264.507 192.308L276.22 198.176L275.046 200.517L263.333 194.649L264.507 192.308Z" fill="#37ADCA"/>
<path opacity="0.1" d="M255.41 210.451L267.122 216.32L265.948 218.66L254.235 212.792L255.41 210.451Z" fill="#37ADCA"/>
<path opacity="0.1" d="M377.323 123.864H390.426V161.179H377.323V123.864Z" fill="#37ADCA"/>
<path opacity="0.1" d="M377.323 129.756H390.426V132.375H377.323V129.756Z" fill="#37ADCA"/>
<path opacity="0.1" d="M377.323 150.05H390.426V152.668H377.323V150.05Z" fill="#37ADCA"/>
<path opacity="0.1" d="M357.668 123.864H370.771V161.179H357.668V123.864Z" fill="#37ADCA"/>
<path opacity="0.1" d="M357.668 129.756H370.771V132.375H357.668V129.756Z" fill="#37ADCA"/>
<path opacity="0.1" d="M357.668 150.05H370.771V152.668H357.668V150.05Z" fill="#37ADCA"/>
<path opacity="0.1" d="M338.014 123.864H351.117V161.179H338.014V123.864Z" fill="#37ADCA"/>
<path opacity="0.1" d="M338.014 129.756H351.117V132.375H338.014V129.756Z" fill="#37ADCA"/>
<path opacity="0.1" d="M338.014 150.05H351.117V152.668H338.014V150.05Z" fill="#37ADCA"/>
<path opacity="0.1" d="M256.121 123.864H269.224V161.179H256.121V123.864Z" fill="#37ADCA"/>
<path opacity="0.1" d="M256.121 129.756H269.224V132.375H256.121V129.756Z" fill="#37ADCA"/>
<path opacity="0.1" d="M256.121 150.05H269.224V152.668H256.121V150.05Z" fill="#37ADCA"/>
<path opacity="0.1" d="M236.467 123.864H249.57V161.179H236.467V123.864Z" fill="#37ADCA"/>
<path opacity="0.1" d="M236.467 129.756H249.57V132.375H236.467V129.756Z" fill="#37ADCA"/>
<path opacity="0.1" d="M236.467 150.05H249.57V152.668H236.467V150.05Z" fill="#37ADCA"/>
<path opacity="0.1" d="M216.813 123.864H229.916V161.179H216.813V123.864Z" fill="#37ADCA"/>
<path opacity="0.1" d="M216.813 129.756H229.916V132.375H216.813V129.756Z" fill="#37ADCA"/>
<path opacity="0.1" d="M216.813 150.05H229.916V152.668H216.813V150.05Z" fill="#37ADCA"/>
<path opacity="0.1" d="M377.323 188.019H390.426V225.333H377.323V188.019Z" fill="#37ADCA"/>
<path opacity="0.1" d="M377.323 193.911H390.426V196.529H377.323V193.911Z" fill="#37ADCA"/>
<path opacity="0.1" d="M377.323 214.204H390.426V216.823H377.323V214.204Z" fill="#37ADCA"/>
<path opacity="0.1" d="M357.668 188.019H370.771V225.333H357.668V188.019Z" fill="#37ADCA"/>
<path opacity="0.1" d="M357.668 193.911H370.771V196.529H357.668V193.911Z" fill="#37ADCA"/>
<path opacity="0.1" d="M357.668 214.204H370.771V216.823H357.668V214.204Z" fill="#37ADCA"/>
<path opacity="0.1" d="M338.014 188.019H351.117V225.333H338.014V188.019Z" fill="#37ADCA"/>
<path opacity="0.1" d="M338.014 193.911H351.117V196.529H338.014V193.911Z" fill="#37ADCA"/>
<path opacity="0.1" d="M338.014 214.204H351.117V216.823H338.014V214.204Z" fill="#37ADCA"/>
<path opacity="0.1" d="M318.36 188.019H331.463V225.333H318.36V188.019Z" fill="#37ADCA"/>
<path opacity="0.1" d="M318.36 193.911H331.463V196.529H318.36V193.911Z" fill="#37ADCA"/>
<path opacity="0.1" d="M318.36 214.204H331.463V216.823H318.36V214.204Z" fill="#37ADCA"/>
<path opacity="0.1" d="M298.706 188.019H311.809V225.333H298.706V188.019Z" fill="#37ADCA"/>
<path opacity="0.1" d="M298.706 193.911H311.809V196.529H298.706V193.911Z" fill="#37ADCA"/>
<path opacity="0.1" d="M298.706 214.204H311.809V216.823H298.706V214.204Z" fill="#37ADCA"/>
<path opacity="0.1" d="M279.051 188.019H292.154V225.333H279.051V188.019Z" fill="#37ADCA"/>
<path opacity="0.1" d="M279.051 193.911H292.154V196.529H279.051V193.911Z" fill="#37ADCA"/>
<path opacity="0.1" d="M279.051 214.204H292.154V216.823H279.051V214.204Z" fill="#37ADCA"/>
<path opacity="0.1" d="M239.743 64.3445V98.3334H252.846V61.8503C248.461 62.6228 244.093 63.4542 239.743 64.3445Z" fill="#37ADCA"/>
<path opacity="0.1" d="M239.743 66.9107H252.846V69.5292H239.743V66.9107Z" fill="#37ADCA"/>
<path opacity="0.1" d="M239.743 87.2045H252.846V89.823H239.743V87.2045Z" fill="#37ADCA"/>
<path opacity="0.1" d="M220.089 68.8877V98.3464H233.191V65.7454C231.488 66.1186 229.791 66.5114 228.094 66.9107C225.413 67.5391 222.744 68.1981 220.089 68.8877Z" fill="#37ADCA"/>
<path opacity="0.1" d="M220.089 68.8877V69.5423H233.191V66.9238H228.094C225.413 67.5435 222.744 68.1981 220.089 68.8877Z" fill="#37ADCA"/>
<path opacity="0.1" d="M220.089 87.2045H233.191V89.823H220.089V87.2045Z" fill="#37ADCA"/>
<g opacity="0.1">
<path opacity="0.1" d="M311.553 147.615C311.553 147.615 315.523 146.266 317.449 149.768C317.953 150.716 318.209 151.776 318.194 152.85C318.179 153.923 317.894 154.975 317.364 155.909C316.106 158.174 313.518 161.146 308.618 160.858C304.458 160.635 303.075 157.467 302.722 154.514C302.586 153.41 302.734 152.289 303.152 151.258C303.571 150.227 304.245 149.319 305.112 148.621C305.979 147.922 307.009 147.456 308.107 147.267C309.204 147.077 310.331 147.169 311.383 147.536L311.553 147.615Z" fill="#37ADCA"/>
<path opacity="0.1" d="M316.499 156.23C317.029 155.296 317.315 154.244 317.33 153.17C317.344 152.097 317.088 151.037 316.585 150.089C314.671 146.593 310.688 147.935 310.688 147.935L310.485 147.863C308.969 147.315 307.303 147.353 305.814 147.968C306.636 147.479 307.557 147.178 308.51 147.087C309.463 146.997 310.424 147.119 311.324 147.444L311.527 147.516C311.527 147.516 315.497 146.168 317.423 149.67C317.927 150.618 318.183 151.678 318.168 152.751C318.153 153.825 317.868 154.877 317.338 155.811C316.353 157.686 314.772 159.181 312.844 160.059C314.39 159.141 315.654 157.816 316.499 156.23Z" fill="#37ADCA"/>
<path opacity="0.2" d="M313.604 149.297C313.604 149.297 312.129 150.456 308.552 149.297H313.604Z" fill="#37ADCA"/>
<path opacity="0.1" d="M313.925 140.885C313.925 140.885 311.402 147.719 311.612 149.507L309.614 149.297C309.614 149.297 312.981 143.307 312.136 140.885H313.925Z" fill="#37ADCA"/>
<path opacity="0.2" d="M313.925 140.885C313.925 140.885 311.402 147.719 311.612 149.507L309.614 149.297C309.614 149.297 312.981 143.307 312.136 140.885H313.925Z" fill="#37ADCA"/>
<path opacity="0.1" d="M303.613 141.461C303.613 141.461 307.589 139.432 309.365 141.107C311.14 142.783 311.415 147.071 311.415 147.071C311.415 147.071 304.936 147.948 303.613 141.461Z" fill="#37ADCA"/>
<path opacity="0.1" d="M303.613 141.461C303.613 141.461 307.589 139.432 309.365 141.107C311.14 142.783 311.415 147.071 311.415 147.071C311.415 147.071 304.936 147.948 303.613 141.461Z" fill="#37ADCA"/>
<path opacity="0.1" d="M311.422 147.071C311.422 147.071 310.38 142.096 303.619 141.454L311.422 147.071Z" fill="#37ADCA"/>
</g>
<g opacity="0.1">
<path opacity="0.1" d="M227.695 212.424C227.695 212.424 231.665 211.075 233.591 214.578C234.095 215.526 234.351 216.585 234.336 217.659C234.321 218.732 234.036 219.784 233.506 220.718C232.248 222.983 229.66 225.955 224.76 225.667C220.599 225.445 219.217 222.276 218.863 219.324C218.728 218.219 218.876 217.099 219.294 216.068C219.712 215.036 220.387 214.129 221.254 213.43C222.12 212.732 223.151 212.266 224.248 212.076C225.345 211.886 226.473 211.979 227.524 212.345L227.695 212.424Z" fill="#37ADCA"/>
<path opacity="0.1" d="M232.641 221.039C233.171 220.105 233.456 219.053 233.471 217.98C233.486 216.906 233.23 215.847 232.726 214.898C230.813 211.403 226.83 212.745 226.83 212.745L226.627 212.673C225.111 212.125 223.445 212.162 221.956 212.777C222.778 212.288 223.699 211.987 224.652 211.897C225.604 211.806 226.565 211.928 227.465 212.254L227.668 212.326C227.668 212.326 231.639 210.977 233.565 214.479C234.068 215.428 234.325 216.487 234.31 217.561C234.295 218.634 234.009 219.686 233.48 220.62C232.495 222.495 230.914 223.99 228.985 224.869C230.532 223.95 231.796 222.626 232.641 221.039Z" fill="#37ADCA"/>
<path opacity="0.2" d="M229.745 214.106C229.745 214.106 228.271 215.265 224.694 214.106H229.745Z" fill="#37ADCA"/>
<path opacity="0.1" d="M230.066 205.694C230.066 205.694 227.544 212.529 227.754 214.316L225.756 214.106C225.756 214.106 229.123 208.116 228.278 205.694H230.066Z" fill="#37ADCA"/>
<path opacity="0.2" d="M230.066 205.694C230.066 205.694 227.544 212.529 227.754 214.316L225.756 214.106C225.756 214.106 229.123 208.116 228.278 205.694H230.066Z" fill="#37ADCA"/>
<path opacity="0.1" d="M219.754 206.27C219.754 206.27 223.731 204.241 225.507 205.917C227.282 207.593 227.557 211.88 227.557 211.88C227.557 211.88 221.078 212.758 219.754 206.27Z" fill="#37ADCA"/>
<path opacity="0.1" d="M219.754 206.27C219.754 206.27 223.731 204.241 225.507 205.917C227.282 207.593 227.557 211.88 227.557 211.88C227.557 211.88 221.078 212.758 219.754 206.27Z" fill="#37ADCA"/>
<path opacity="0.1" d="M227.564 211.881C227.564 211.881 226.522 206.905 219.761 206.264L227.564 211.881Z" fill="#37ADCA"/>
</g>
<path opacity="0.1" d="M95.1201 412.449C75.5815 412.449 59.7424 406.822 59.7424 399.88C59.7424 392.938 75.5815 387.311 95.1201 387.311C114.659 387.311 130.498 392.938 130.498 399.88C130.498 406.822 114.659 412.449 95.1201 412.449Z" fill="black"/>
<path d="M95.0939 399.985C95.0939 399.985 74.9088 331.516 98.8806 281.115C108.937 259.964 112.278 236.22 107.633 213.268C105.41 202.381 102.193 191.721 98.0224 181.42" stroke="#535461" stroke-width="2" stroke-miterlimit="10"/>
<path d="M112.933 149.565C112.933 157.958 97.7276 182.297 97.7276 182.297C97.7276 182.297 82.5217 157.964 82.5217 149.565C82.5217 145.536 84.1238 141.671 86.9755 138.821C89.8271 135.972 93.6948 134.371 97.7276 134.371C101.76 134.371 105.628 135.972 108.48 138.821C111.331 141.671 112.933 145.536 112.933 149.565Z" fill="#37ADCA"/>
<path d="M138.071 196.045C133.485 203.089 107.509 215.258 107.509 215.258C107.509 215.258 107.981 186.572 112.547 179.528C113.632 177.852 115.037 176.406 116.682 175.272C118.327 174.138 120.179 173.339 122.133 172.921C124.086 172.502 126.103 172.472 128.069 172.832C130.034 173.193 131.909 173.937 133.587 175.021C135.264 176.106 136.712 177.51 137.847 179.153C138.981 180.797 139.781 182.647 140.2 184.599C140.619 186.552 140.648 188.567 140.288 190.531C139.927 192.495 139.183 194.368 138.097 196.045H138.071Z" fill="#37ADCA"/>
<path d="M136.99 275.479C129.489 279.256 100.898 276.644 100.898 276.644C100.898 276.644 115.796 252.121 123.298 248.344C125.081 247.446 127.024 246.907 129.015 246.759C131.006 246.611 133.007 246.856 134.904 247.48C136.801 248.105 138.555 249.097 140.068 250.399C141.581 251.701 142.823 253.289 143.722 255.07C144.621 256.852 145.16 258.793 145.308 260.783C145.457 262.773 145.211 264.773 144.586 266.668C143.961 268.563 142.968 270.316 141.665 271.828C140.362 273.34 138.773 274.58 136.99 275.479Z" fill="#37ADCA"/>
<path d="M122.577 335.391C115.823 340.38 87.1995 342.638 87.1995 342.638C87.1995 342.638 97.7342 315.948 104.489 310.96C106.094 309.773 107.918 308.914 109.855 308.432C111.793 307.949 113.807 307.853 115.782 308.148C117.757 308.443 119.655 309.124 121.366 310.152C123.078 311.18 124.57 312.534 125.758 314.138C126.945 315.743 127.805 317.565 128.288 319.501C128.771 321.437 128.868 323.45 128.572 325.423C128.277 327.397 127.596 329.293 126.567 331.003C125.538 332.713 124.182 334.204 122.577 335.391Z" fill="#37ADCA"/>
<path d="M75.5772 216.882C81.598 222.728 109.645 228.783 109.645 228.783C109.645 228.783 102.772 200.928 96.7514 195.082C95.3213 193.681 93.6281 192.576 91.7692 191.83C89.9103 191.085 87.9223 190.713 85.9194 190.738C83.9164 190.762 81.938 191.182 80.0979 191.972C78.2577 192.763 76.592 193.909 75.1965 195.345C73.801 196.781 72.7031 198.478 71.966 200.339C71.2288 202.2 70.867 204.189 70.9011 206.19C70.9353 208.191 71.3648 210.166 72.165 212.001C72.9653 213.836 74.1204 215.494 75.5641 216.882H75.5772Z" fill="#37ADCA"/>
<path d="M59.6835 287.164C67.1849 290.941 95.7752 288.329 95.7752 288.329C95.7752 288.329 80.8773 263.806 73.376 260.029C71.5929 259.131 69.6502 258.592 67.6588 258.444C65.6675 258.296 63.6663 258.541 61.7698 259.166C59.8732 259.79 58.1184 260.782 56.6054 262.084C55.0925 263.387 53.851 264.974 52.9519 266.756C52.0529 268.537 51.5139 270.479 51.3656 272.468C51.2173 274.458 51.4627 276.458 52.0878 278.353C52.7129 280.248 53.7054 282.002 55.0087 283.513C56.312 285.025 57.9005 286.266 59.6835 287.164Z" fill="#37ADCA"/>
<path d="M53.5645 357.597C60.319 362.585 88.9422 364.843 88.9422 364.843C88.9422 364.843 78.4075 338.154 71.653 333.165C70.0494 331.952 68.221 331.069 66.2735 330.567C64.326 330.065 62.2981 329.954 60.3074 330.24C58.3166 330.526 56.4024 331.205 54.6758 332.235C52.9491 333.266 51.4443 334.629 50.2484 336.245C49.0524 337.86 48.1892 339.697 47.7086 341.649C47.2281 343.6 47.1398 345.628 47.4488 347.614C47.7578 349.6 48.458 351.504 49.5089 353.218C50.5598 354.932 51.9405 356.42 53.571 357.597H53.5645Z" fill="#37ADCA"/>
<path opacity="0.1" d="M183.171 376.313C163.633 376.313 147.794 370.685 147.794 363.744C147.794 356.802 163.633 351.175 183.171 351.175C202.71 351.175 218.549 356.802 218.549 363.744C218.549 370.685 202.71 376.313 183.171 376.313Z" fill="black"/>
<path d="M184.606 365.531C184.606 365.531 175.152 333.454 186.381 309.841C191.155 299.967 192.594 288.812 190.483 278.051C189.439 272.951 187.931 267.957 185.975 263.132" stroke="#535461" stroke-width="2" stroke-miterlimit="10"/>
<path d="M192.966 248.206C192.966 252.134 185.844 263.538 185.844 263.538C185.844 263.538 178.723 252.134 178.723 248.206C178.723 246.318 179.474 244.508 180.81 243.172C182.146 241.837 183.958 241.087 185.848 241.087C187.737 241.087 189.549 241.837 190.885 243.172C192.222 244.508 192.972 246.318 192.972 248.206H192.966Z" fill="#37ADCA"/>
<path d="M204.739 269.98C202.603 273.253 190.417 278.981 190.417 278.981C190.417 278.981 190.64 265.541 192.776 262.242C193.284 261.457 193.942 260.78 194.713 260.249C195.483 259.718 196.35 259.345 197.265 259.149C198.18 258.953 199.125 258.939 200.045 259.108C200.966 259.277 201.844 259.626 202.629 260.134C203.415 260.642 204.092 261.3 204.623 262.069C205.154 262.839 205.529 263.706 205.724 264.62C205.92 265.535 205.934 266.478 205.765 267.398C205.596 268.318 205.247 269.195 204.739 269.98Z" fill="#37ADCA"/>
<path d="M204.228 307.196C200.716 308.964 187.318 307.746 187.318 307.746C187.318 307.746 194.296 296.257 197.801 294.483C198.636 294.062 199.546 293.81 200.479 293.74C201.412 293.671 202.35 293.786 203.238 294.079C205.032 294.67 206.518 295.949 207.369 297.635C208.219 299.321 208.365 301.275 207.773 303.068C207.182 304.861 205.902 306.346 204.214 307.196H204.228Z" fill="#37ADCA"/>
<path d="M197.493 335.267C194.328 337.604 180.918 338.664 180.918 338.664C180.918 338.664 185.857 326.161 189.015 323.824C189.768 323.268 190.622 322.866 191.53 322.64C192.438 322.414 193.382 322.369 194.307 322.508C195.232 322.646 196.121 322.966 196.923 323.448C197.725 323.93 198.424 324.565 198.98 325.316C199.536 326.068 199.939 326.922 200.165 327.829C200.391 328.737 200.436 329.679 200.297 330.604C200.158 331.529 199.839 332.417 199.356 333.218C198.874 334.019 198.239 334.718 197.486 335.273L197.493 335.267Z" fill="#37ADCA"/>
<path d="M175.46 279.747C178.284 282.483 191.433 285.324 191.433 285.324C191.433 285.324 188.209 272.271 185.392 269.535C184.037 268.219 182.214 267.496 180.325 267.524C178.436 267.551 176.636 268.328 175.319 269.682C174.003 271.036 173.279 272.857 173.307 274.745C173.335 276.632 174.111 278.432 175.467 279.747H175.46Z" fill="#37ADCA"/>
<path d="M167.998 312.675C171.51 314.443 184.907 313.225 184.907 313.225C184.907 313.225 177.93 301.736 174.425 299.962C172.738 299.112 170.782 298.967 168.988 299.558C167.193 300.149 165.707 301.428 164.857 303.114C164.006 304.8 163.861 306.755 164.452 308.548C165.044 310.341 166.324 311.825 168.011 312.675H167.998Z" fill="#37ADCA"/>
<path d="M165.161 345.65C168.326 347.987 181.737 349.047 181.737 349.047C181.737 349.047 176.797 336.543 173.639 334.206C172.887 333.65 172.033 333.247 171.125 333.021C170.217 332.795 169.274 332.749 168.349 332.887C167.423 333.025 166.534 333.344 165.732 333.825C164.93 334.307 164.231 334.941 163.674 335.692C163.118 336.444 162.715 337.297 162.488 338.204C162.262 339.111 162.216 340.054 162.354 340.979C162.492 341.903 162.811 342.792 163.293 343.593C163.775 344.395 164.41 345.093 165.161 345.65Z" fill="#37ADCA"/>
<path d="M1.2316 429.345L204.09 321.821H246.628L235.622 230.276C235.381 228.272 235.543 226.24 236.097 224.3C236.652 222.359 237.588 220.548 238.852 218.974C240.115 217.399 241.68 216.092 243.455 215.129C245.231 214.166 247.18 213.567 249.19 213.366L250.33 213.412H250.441L405.192 215.762C409.154 215.483 413.085 216.622 416.281 218.978C419.478 221.333 421.729 224.749 422.632 228.613L429.839 281.22L430.881 279.629L431.385 278.863C427.579 276.389 435.087 261.679 441.448 250.714L442.025 249.719C437.989 248.036 433.508 246.445 433.508 246.445L443.433 240.253C443.433 240.253 452.566 227.042 462.288 216.325C455.737 175.332 469.573 127.949 469.737 127.295L470.104 127.393C468.183 124.285 467.171 120.702 467.182 117.049C467.181 114.267 467.771 111.516 468.914 108.979C470.057 106.442 471.727 104.177 473.812 102.333C474.199 98.8243 474.756 95.2107 475.555 91.4073C475.699 90.7526 475.85 90.026 476.013 89.3321C476.76 86.0589 477.514 82.7857 478.503 79.5779C479.189 77.291 480.04 75.0571 481.051 72.8941C486.221 61.9812 496.853 54.1779 508.502 51.4284C514.496 50.0144 520.642 52.2075 526.237 51.16C529.054 50.6429 531.576 47.9392 534.321 46.846C537.8 45.4581 541.567 44.81 545.249 44.2274C549.835 43.4615 554.598 42.7021 559.164 43.6972C566.698 45.3338 572.444 51.435 576.669 57.8766C580.895 64.3183 584.177 71.4539 589.399 77.123C592.891 80.9199 597.189 83.9706 600.3 88.0817C604.886 94.1306 606.478 101.829 607.953 109.305C609.774 118.503 611.595 127.831 611.556 137.173C611.556 139.34 611.523 141.513 611.333 143.687C610.855 149.264 609.584 154.763 609.282 160.347C609.282 160.95 609.237 161.552 609.224 162.154C609.289 172.373 612.309 182.448 615.31 192.268C616.266 195.39 617.236 198.539 618.369 201.616C624.397 202.126 630.162 203.331 634.558 205.701C650.622 214.29 662.985 233.444 662.985 233.444L686.484 255.047C686.484 255.047 677.208 259.375 672.877 266.792C672.722 267.053 672.545 267.301 672.347 267.531L672.687 268.317L686.484 300.159C686.484 300.159 677.824 306.338 664.865 305.101C662.759 304.838 660.621 304.994 658.575 305.559C658.575 305.952 658.615 306.351 658.628 306.77C659.421 324.989 659.84 364.909 650.406 391.873L671.724 416.75L714.308 429.352L716.162 462.084H-0.00662231L1.2316 429.345ZM615.421 307.288C613.595 307.659 611.814 308.226 610.108 308.977V331.732C611.235 323.693 612.801 315.457 614.982 308.61C615.12 308.165 615.244 307.726 615.421 307.288ZM492.457 351.076C492.457 350.998 492.457 350.919 492.457 350.841C492.431 350.046 492.324 349.257 492.136 348.484C491.87 347.286 491.279 346.185 490.427 345.302C488.848 343.725 487.216 342.029 485.585 340.19C484.581 342.78 483.131 345.175 481.3 347.266C479.204 349.603 474.52 351.705 467.942 353.603C476.065 352.344 484.248 351.5 492.457 351.076ZM438.991 347.934L460.401 354.264C470.523 351.999 477.723 349.407 480.39 346.409C482.255 344.26 483.704 341.782 484.661 339.103C477.022 330.252 469.593 318.344 467.89 302.083C467.844 301.658 467.811 301.219 467.772 300.774C465.449 299.455 463.256 297.921 461.22 296.191L460.834 297.095C455.077 310.174 446.935 322.068 436.823 332.17L438.991 347.934ZM470.726 128.349C469.043 134.417 457.624 177.381 463.349 215.16C466.913 211.324 470.51 207.894 473.733 205.635C474.497 205.107 475.296 204.633 476.125 204.215C476.839 197.289 477.166 190.107 477.219 182.991C477.153 174.18 476.629 165.44 475.909 157.126C475.129 148.315 474.212 139.909 473.642 131.641C472.551 130.655 471.573 129.551 470.726 128.349Z" fill="url(#paint0_linear)"/>
<path d="M481.176 138.928H486.764V100.304H481.176C476.909 100.304 472.816 101.998 469.798 105.013C466.781 108.028 465.086 112.118 465.086 116.382V122.81C465.08 124.925 465.493 127.02 466.299 128.975C467.105 130.93 468.29 132.707 469.784 134.205C471.279 135.702 473.055 136.889 475.009 137.7C476.964 138.51 479.06 138.928 481.176 138.928Z" fill="#DFE6F5"/>
<path d="M487.557 138.928H485.972C483.79 138.928 482.021 137.16 482.021 134.98V104.284C482.021 102.104 483.79 100.337 485.972 100.337H487.557C489.739 100.337 491.507 102.104 491.507 104.284V134.98C491.507 137.16 489.739 138.928 487.557 138.928Z" fill="#535461"/>
<g opacity="0.1">
<path opacity="0.1" d="M481.176 138.928H486.764V100.304H481.176C476.909 100.304 472.816 101.998 469.798 105.013C466.781 108.028 465.086 112.118 465.086 116.382V122.81C465.08 124.925 465.493 127.02 466.299 128.975C467.105 130.93 468.29 132.707 469.784 134.205C471.279 135.702 473.055 136.889 475.009 137.7C476.964 138.51 479.06 138.928 481.176 138.928Z" fill="black"/>
<path opacity="0.1" d="M487.557 138.928H485.972C483.79 138.928 482.021 137.16 482.021 134.98V104.284C482.021 102.104 483.79 100.337 485.972 100.337H487.557C489.739 100.337 491.507 102.104 491.507 104.284V134.98C491.507 137.16 489.739 138.928 487.557 138.928Z" fill="black"/>
</g>
<path d="M478.516 120.748H576.191V221.988H478.516V120.748Z" fill="#865A61"/>
<path opacity="0.1" d="M478.516 106.804H576.191V208.044H478.516V106.804Z" fill="black"/>
<path d="M481.851 204.712L487.747 247.526L490.525 267.649L491.547 275.04L500.11 291.72L515.833 322.331L546.166 325.971L599.521 250.786C599.521 250.786 627.456 197.439 584.983 202.283C561.169 205.007 555.502 183.705 555.076 164.465C554.969 154.778 555.847 145.105 557.697 135.595L515.23 156.21C516.217 160.806 516.96 165.028 517.458 168.877C519.528 184.628 517.811 194.447 514.221 200.398C504.663 216.247 481.851 204.712 481.851 204.712Z" fill="#FDC2CC"/>
<path opacity="0.1" d="M515.217 156.217C516.204 160.812 516.947 165.035 517.445 168.884C521.851 170.137 526.411 170.771 530.993 170.769C539.429 170.783 547.726 168.616 555.076 164.478C554.969 154.791 555.847 145.118 557.697 135.609L515.217 156.217Z" fill="black"/>
<path d="M530.993 169.552C503.853 169.552 481.851 147.567 481.851 120.447C481.851 93.3274 503.853 71.3426 530.993 71.3426C558.134 71.3426 580.135 93.3274 580.135 120.447C580.135 147.567 558.134 169.552 530.993 169.552Z" fill="#FDC2CC"/>
<path d="M465.466 399.919L667.498 415.696L634.741 377.504C599.593 356.045 599.894 326.547 604.565 308.25C606.015 302.386 608.206 296.73 611.084 291.419L541.252 291.746H540.663L534.924 304.78L534.662 305.369L530.39 315.065L515.833 288.997L510.769 280.84L507.938 276.258C507.938 276.258 466.075 266.556 465.472 291.413C465.4 294.267 465.511 297.122 465.806 299.962C467.89 319.968 478.844 333.27 487.917 342.337C498.229 352.634 465.466 399.919 465.466 399.919Z" fill="#EC7580"/>
<path d="M489.594 346.658C491.075 352.549 487.341 362.677 482.388 372.621C506.137 375.174 532.179 373.845 532.179 373.845L558.902 381.124L634.126 402.95C637.401 398.715 640.022 393.392 642.19 387.396L634.735 378.702C611.274 364.379 603.609 346.474 602.489 330.711C602.043 323.556 602.742 316.376 604.559 309.441C606.008 303.582 608.196 297.931 611.071 292.624L541.239 292.951H540.65L534.911 305.985L534.649 306.574L530.377 316.269L515.82 290.202L510.769 282.045L507.938 277.462C507.938 277.462 466.075 267.747 465.466 292.624C465.393 295.478 465.505 298.334 465.8 301.173C467.883 321.179 478.837 334.481 487.911 343.548C488.747 344.411 489.329 345.486 489.594 346.658Z" fill="#EC7580"/>
<path d="M331.993 378.093C333.206 392.64 368.393 373.243 368.393 373.243C368.393 373.243 379.314 369.603 416.323 345.964C435.113 333.965 449.929 316.679 458.908 296.283C460.323 293.131 461.508 289.879 462.452 286.555L436.954 267.747L429.518 279.105L404.799 316.845L368.4 341.067C368.4 341.067 330.781 363.547 331.993 378.093Z" fill="#FDC2CC"/>
<path d="M8.02539 425.987H707.541L637.513 405.281L462.445 353.512L350.809 320.498H207.018L8.02539 425.987Z" fill="#CBCDDA"/>
<path d="M707.541 425.987L709.362 458.116H6.81329L8.02533 425.987H707.541Z" fill="#CBCDDA"/>
<path opacity="0.1" d="M707.541 425.987L709.362 458.116H6.81329L8.02533 425.987H707.541Z" fill="black"/>
<path d="M524.147 380.548L376.288 365.367L374.466 394.466L442.051 401.163C446.713 401.541 451.405 401.176 455.953 400.083L524.271 382.447C524.489 382.39 524.68 382.259 524.812 382.076C524.944 381.893 525.008 381.671 524.993 381.446C524.978 381.222 524.886 381.009 524.731 380.845C524.577 380.681 524.37 380.576 524.147 380.548Z" fill="#535461"/>
<path opacity="0.2" d="M524.147 380.548L376.288 365.367L374.466 394.466L442.051 401.163C446.713 401.541 451.405 401.176 455.953 400.083L524.271 382.447C524.489 382.39 524.68 382.259 524.812 382.076C524.944 381.893 525.008 381.671 524.993 381.446C524.978 381.222 524.886 381.009 524.731 380.845C524.577 380.681 524.37 380.576 524.147 380.548Z" fill="black"/>
<path d="M524.147 379.939L375.069 364.758L373.248 393.857L440.839 399.33C445.498 399.714 450.188 399.356 454.734 398.269L524.271 381.844C524.493 381.791 524.689 381.661 524.824 381.477C524.96 381.293 525.026 381.067 525.011 380.84C524.996 380.612 524.901 380.397 524.743 380.232C524.585 380.068 524.374 379.964 524.147 379.939Z" fill="#535461"/>
<path opacity="0.3" d="M488.802 381L409.975 372.974L409.012 388.358L444.75 391.258C447.215 391.459 449.696 391.266 452.101 390.689L488.867 382.002C488.983 381.972 489.084 381.903 489.154 381.807C489.224 381.71 489.258 381.592 489.251 381.474C489.243 381.355 489.194 381.242 489.112 381.156C489.03 381.069 488.92 381.014 488.802 381Z" fill="white"/>
<path opacity="0.1" d="M429.518 279.118C429.996 279.773 430.828 280.068 432.099 279.884C444.232 278.065 458.187 295.648 458.187 295.648C458.187 295.648 458.436 295.884 458.888 296.303C460.304 293.15 461.488 289.899 462.432 286.575L436.954 267.747L429.518 279.118Z" fill="black"/>
<path opacity="0.1" d="M465.8 301.134C471.506 304.309 479.361 306.587 485.487 300.479C496.067 289.907 514.614 291.314 515.768 291.38C513.874 291.118 512.197 287.229 510.769 282.019L507.939 277.436C507.939 277.436 466.075 267.747 465.466 292.624C465.395 295.465 465.506 298.307 465.8 301.134Z" fill="black"/>
<path opacity="0.1" d="M487.76 247.526L491.56 275.02L500.123 291.701C505.429 290.343 510.917 289.828 516.383 290.175C510.349 289.344 506.451 251.669 506.451 251.669L506.104 251.591L487.76 247.526Z" fill="black"/>
<path d="M432.099 278.673C444.232 276.853 458.187 294.437 458.187 294.437C458.187 294.437 474.566 310.201 485.487 299.288C496.067 288.716 514.614 290.123 515.768 290.188C509.734 289.351 505.836 251.676 505.836 251.676L505.488 251.597L447.266 238.662C447.266 238.662 443.794 243.977 439.876 250.746C432.807 262.942 424.29 279.845 432.099 278.673Z" fill="#EC7580"/>
<path opacity="0.1" d="M446.663 254.426C446.054 255.637 456.372 261.699 461.22 259.879C466.068 258.059 478.208 267.734 479.42 268.972C480.632 270.209 507.932 267.152 507.932 267.152C506.799 262.022 505.983 256.827 505.488 251.597L447.266 238.662C447.266 238.662 443.793 243.977 439.876 250.746C443.499 252.232 446.958 253.83 446.663 254.426Z" fill="black"/>
<path opacity="0.1" d="M481.851 204.712L487.747 247.526L490.525 267.649C498.662 267.04 508.528 265.947 508.528 265.947C508.528 265.947 498.216 222.905 515.204 200.483C515.204 200.483 514.844 200.483 514.195 200.418C504.663 216.247 481.851 204.712 481.851 204.712Z" fill="black"/>
<path d="M514.608 200.47C514.608 200.47 483.665 198.048 471.532 206.532C459.399 215.016 441.802 240.482 441.802 240.482L432.093 246.544C432.093 246.544 447.259 251.997 446.65 253.214C446.041 254.432 456.359 260.488 461.207 258.668C466.055 256.848 478.195 266.523 479.407 267.761C480.619 268.998 507.919 265.941 507.919 265.941C507.919 265.941 497.62 222.898 514.608 200.47Z" fill="#EC7580"/>
<path d="M291.06 367.482C298.083 367.311 463.199 363.03 478.962 345.46C495.746 326.75 479.453 272.841 465.734 233.916C450.804 191.541 468.604 130.692 468.781 129.998L467.608 129.691C467.424 130.391 449.533 191.593 464.588 234.315C485.926 294.876 490.335 330.966 478.057 344.648C462.635 361.832 292.744 366.251 291.027 366.251L291.06 367.482Z" fill="#DFE6F5"/>
<path d="M405.212 216.43L252.472 214.113C250.503 214.313 248.594 214.904 246.856 215.85C245.118 216.796 243.586 218.079 242.35 219.624C241.114 221.168 240.198 222.943 239.656 224.845C239.113 226.747 238.956 228.738 239.193 230.701L256.521 374.853C256.935 378.316 258.553 381.524 261.093 383.917C263.633 386.31 266.932 387.736 270.417 387.946L426.53 397.602C428.741 397.734 430.953 397.372 433.006 396.543C435.059 395.714 436.901 394.437 438.398 392.807C439.896 391.177 441.01 389.234 441.661 387.119C442.313 385.004 442.484 382.77 442.162 380.581L421.433 229.084C420.878 225.295 418.882 221.866 415.861 219.509C412.84 217.152 409.026 216.05 405.212 216.43Z" fill="#535461"/>
<path opacity="0.2" d="M405.212 216.43L252.472 214.113C250.503 214.313 248.594 214.904 246.856 215.85C245.118 216.796 243.586 218.079 242.35 219.624C241.114 221.168 240.198 222.943 239.656 224.845C239.113 226.747 238.956 228.738 239.193 230.701L256.521 374.853C256.935 378.316 258.553 381.524 261.093 383.917C263.633 386.31 266.932 387.736 270.417 387.946L426.53 397.602C428.741 397.734 430.953 397.372 433.006 396.543C435.059 395.714 436.901 394.437 438.398 392.807C439.896 391.177 441.01 389.234 441.661 387.119C442.313 385.004 442.484 382.77 442.162 380.581L421.433 229.084C420.878 225.295 418.882 221.866 415.861 219.509C412.84 217.152 409.026 216.05 405.212 216.43Z" fill="black"/>
<path d="M404 216.43L251.26 214.113C249.289 214.31 247.377 214.899 245.636 215.843C243.895 216.788 242.36 218.07 241.121 219.615C239.882 221.16 238.964 222.936 238.42 224.839C237.876 226.743 237.718 228.736 237.954 230.701L255.283 374.853C255.697 378.316 257.315 381.524 259.855 383.917C262.394 386.31 265.694 387.736 269.178 387.946L425.312 397.602C427.522 397.734 429.735 397.372 431.788 396.543C433.841 395.714 435.683 394.437 437.18 392.807C438.677 391.177 439.792 389.234 440.443 387.119C441.094 385.004 441.265 382.77 440.944 380.581L420.215 229.084C419.659 225.296 417.664 221.868 414.645 219.511C411.625 217.155 407.813 216.051 404 216.43Z" fill="#535461"/>
<path opacity="0.3" d="M329.268 305.645C325.248 305.645 321.989 302.388 321.989 298.371C321.989 294.355 325.248 291.098 329.268 291.098C333.288 291.098 336.547 294.355 336.547 298.371C336.547 302.388 333.288 305.645 329.268 305.645Z" fill="white"/>
<path opacity="0.1" d="M482.388 372.627C506.137 375.18 532.179 373.851 532.179 373.851L558.902 381.124L634.126 402.95C637.401 398.715 640.022 393.392 642.19 387.396L634.735 378.702C611.274 364.379 603.609 346.474 602.489 330.711C600.484 346.389 600.15 360.51 600.15 360.51L569.817 357.479L525.745 347.005C522.71 346.283 519.601 345.92 516.482 345.924C510.743 345.924 500.529 346.049 489.621 346.638C491.075 352.536 487.341 362.67 482.388 372.627Z" fill="black"/>
<path opacity="0.1" d="M449.087 364.758C463.042 381.124 534.629 377.491 534.629 377.491L561.326 384.764L636.556 406.583C636.884 406.158 637.211 405.726 637.513 405.274L462.439 353.505C451.262 355.757 444.403 359.266 449.087 364.758Z" fill="black"/>
<path d="M449.087 363.547C463.042 379.913 534.629 376.28 534.629 376.28L561.326 383.547L636.556 405.372C654.245 382.46 653.852 327.856 652.889 305.769C652.627 299.838 652.332 296.25 652.332 296.25C652.332 296.25 626.853 280.487 615.323 296.25C613.266 299.059 611.543 302.987 610.082 307.543C603.393 328.55 602.574 362.932 602.574 362.932L572.241 359.901L528.169 349.427C525.132 348.705 522.021 348.342 518.899 348.347C500.634 348.399 437.111 349.499 449.087 363.547Z" fill="#FDC2CC"/>
<path opacity="0.1" d="M610.088 307.549C613.96 306.712 618.658 306.895 625.026 309.592C637.768 315.045 647.471 313.834 647.471 313.834C647.471 313.834 646.691 307.648 652.882 305.769C652.62 299.838 652.325 296.25 652.325 296.25C652.325 296.25 626.847 280.487 615.316 296.25C613.279 299.059 611.543 302.987 610.088 307.549Z" fill="black"/>
<path opacity="0.1" d="M534.662 306.561C535.068 306.646 540.525 307.674 551.04 305.343C561.962 302.921 566.207 307.766 572.273 310.194C578.34 312.623 594.083 313.834 600.176 311.412C601.611 310.836 603.052 310.103 604.579 309.448C606.02 303.588 608.202 297.934 611.071 292.624L541.239 292.951L534.911 305.985L534.662 306.561Z" fill="black"/>
<path d="M534.662 305.35C534.662 305.35 540.119 306.561 551.04 304.139C561.962 301.717 566.207 306.561 572.273 308.99C578.34 311.418 594.116 312.629 600.183 310.201C606.249 307.772 612.316 302.928 625.078 308.381C637.84 313.834 647.523 312.623 647.523 312.623C647.523 312.623 646.311 302.921 659.047 304.113C671.783 305.304 680.28 299.262 680.28 299.262L666.745 268.022L662.683 258.641L561.175 251.709H560.691L534.662 305.35Z" fill="#EC7580"/>
<path opacity="0.1" d="M551.04 276.258C557.716 265.345 592.904 275.047 592.904 275.047C592.904 275.047 609.892 279.898 613.534 270.805C617.177 261.712 643.225 267.747 643.225 267.747C643.225 267.747 662.126 274.831 666.699 268.035L662.637 258.654L561.175 251.709L551.04 276.258Z" fill="black"/>
<path d="M580.135 204.712C580.135 204.712 613.502 198.041 629.271 206.532C645.04 215.023 657.173 233.811 657.173 233.811L680.234 255.028C680.234 255.028 671.135 259.27 666.889 266.543C662.644 273.816 643.225 266.543 643.225 266.543C643.225 266.543 617.138 260.481 613.495 269.574C609.852 278.667 592.865 273.816 592.865 273.816C592.865 273.816 557.677 264.114 551.001 275.027L580.135 204.712Z" fill="#EC7580"/>
<path opacity="0.1" d="M541.672 49.3794C546.192 48.62 550.844 47.8803 555.325 48.8557C562.715 50.4596 568.349 56.4495 572.496 62.7603C576.643 69.071 579.867 76.0756 584.983 81.6335C588.41 85.3584 592.622 88.3501 595.675 92.3827C600.169 98.3202 601.735 105.894 603.183 113.2C605.306 123.923 607.435 134.803 606.498 145.716C606.026 151.189 604.782 156.577 604.487 162.082C603.891 173.139 607.16 183.993 610.383 194.585C612.617 201.904 614.923 209.36 619.339 215.612C622.267 219.756 626.021 223.225 629.598 226.819C630.462 227.552 631.112 228.504 631.479 229.575C632.252 232.705 628.472 234.812 625.582 236.227C616.745 240.632 610.947 249.228 604.074 256.311C597.202 263.394 587.368 269.476 577.914 266.634C575.11 265.79 572.45 264.186 569.528 264.239C567.563 264.271 565.676 265.07 563.809 265.725C559.164 267.354 554.273 268.174 549.35 268.147C548.262 268.239 547.172 268.012 546.212 267.492C544.751 266.504 544.469 264.513 544.325 262.759C543.401 251.748 542.484 240.698 543.107 229.667C544.515 204.686 567.615 175.79 558.83 152.348C555.011 142.122 548.027 133.324 544.161 123.118C540.086 112.362 525.719 103.629 522.869 92.4809C522.548 91.224 522.109 89.8623 521.009 89.2077C519.495 88.2781 517.523 89.0898 516.062 90.098C507.794 95.7933 505.102 106.503 502.095 116.074C499.671 123.783 496.669 131.298 493.113 138.554C491.147 142.482 486.928 147.032 483.233 144.649C485.094 161.198 495.838 175.653 498.269 192.123C500.64 208.175 494.895 224.58 497.122 240.645C498.589 250.988 503.276 260.608 510.52 268.14C502.345 269.763 493.938 269.838 485.736 268.363C477.422 266.864 468.525 262.929 465.525 255.034C462.249 246.347 467.313 237.025 469.888 228.096C476.066 206.63 475.588 181.243 473.629 158.992C471.611 136.113 468.584 116.081 473.714 93.6919C474.972 88.1995 476.249 82.6613 478.66 77.5682C483.731 66.8648 494.161 59.2056 505.593 56.5085C511.489 55.1206 517.504 57.2744 522.994 56.2531C525.758 55.736 528.235 53.0912 530.921 52.0176C534.367 50.6102 538.062 49.9817 541.672 49.3794Z" fill="black"/>
<path d="M465.557 253.777C468.558 261.672 477.455 265.607 485.775 267.106C493.978 268.578 502.384 268.503 510.559 266.883C503.317 259.35 498.63 249.731 497.161 239.388C494.927 223.317 500.673 206.912 498.308 190.867C495.877 174.389 485.133 159.935 483.272 143.386C486.967 145.769 491.219 141.238 493.158 137.291C496.713 130.034 499.716 122.519 502.14 114.811C505.148 105.24 507.84 94.5168 516.108 88.8345C517.569 87.8264 519.541 87.0146 521.054 87.9508C522.162 88.6054 522.594 89.9867 522.915 91.224C525.758 102.353 540.132 111.099 544.201 121.855C548.073 132.06 555.056 140.839 558.876 151.084C567.629 174.52 544.528 203.416 543.152 228.397C542.537 239.428 543.454 250.485 544.371 261.489C544.522 263.25 544.803 265.24 546.264 266.229C547.222 266.748 548.31 266.975 549.396 266.883C554.305 266.913 559.183 266.098 563.816 264.474C565.683 263.82 567.556 263.021 569.535 262.988C572.457 262.942 575.117 264.546 577.921 265.384C587.375 268.225 597.215 262.144 604.081 255.061C610.947 247.977 616.764 239.395 625.596 235.015C628.485 233.575 632.265 231.493 631.492 228.358C631.122 227.29 630.472 226.341 629.612 225.608C626.034 222.014 622.274 218.538 619.345 214.401C614.93 208.149 612.63 200.693 610.39 193.374C607.153 182.782 603.884 171.928 604.493 160.871C604.782 155.392 606.026 150.004 606.505 144.505C607.448 133.612 605.312 122.719 603.19 111.996C601.748 104.69 600.183 97.1157 595.682 91.1782C592.622 87.1456 588.416 84.1539 584.983 80.429C579.86 74.8711 576.65 67.8665 572.496 61.5492C568.343 55.2319 562.708 49.2485 555.318 47.6446C550.844 46.6692 546.186 47.4155 541.665 48.1684C538.055 48.7772 534.36 49.4056 530.947 50.7869C528.254 51.8605 525.778 54.5118 523.02 55.0159C517.53 56.0437 511.496 53.8899 505.619 55.2777C494.187 57.9683 483.757 65.6276 478.686 76.3309C477.694 78.4495 476.858 80.6374 476.184 82.8773C475.214 86.0196 474.474 89.2339 473.74 92.4416C473.583 93.0962 473.432 93.8033 473.288 94.4775C468.8 115.793 471.696 131.314 473.655 153.487C475.614 175.659 476.092 205.367 469.921 226.806C467.346 235.762 462.255 245.09 465.557 253.777Z" fill="#865A61"/>
<path opacity="0.05" d="M535.54 292.316C535.54 292.316 530.685 300.172 530.685 305.651C530.685 305.651 527.042 292.316 524.009 292.316" fill="black"/>
<path opacity="0.2" d="M461.227 399.009C460.724 399.009 460.316 398.602 460.316 398.099C460.316 397.597 460.724 397.189 461.227 397.189C461.73 397.189 462.137 397.597 462.137 398.099C462.137 398.602 461.73 399.009 461.227 399.009Z" fill="black"/>
<path d="M473.295 94.471C483.312 76.4357 503.647 64.0695 527.016 64.0695C560.297 64.0695 587.381 89.0899 587.381 119.845H591.659C591.659 86.7528 562.669 59.8275 527.049 59.8275C506.425 59.8275 488.029 68.8484 476.19 82.8708C475.221 86.013 474.48 89.2273 473.747 92.4351C473.583 93.1224 473.432 93.7967 473.295 94.471Z" fill="#535461"/>
<path d="M582.631 102.124H577.043V140.747H582.631C586.899 140.747 590.991 139.054 594.009 136.038C597.026 133.023 598.722 128.934 598.722 124.669V118.241C598.727 116.126 598.314 114.031 597.508 112.076C596.702 110.121 595.517 108.344 594.023 106.847C592.528 105.35 590.753 104.162 588.798 103.351C586.843 102.541 584.748 102.124 582.631 102.124Z" fill="#DFE6F5"/>
<path d="M576.25 102.156H577.836C580.017 102.156 581.786 103.924 581.786 106.104V136.8C581.786 138.98 580.017 140.747 577.836 140.747H576.25C574.068 140.747 572.3 138.98 572.3 136.8V106.104C572.3 103.924 574.068 102.156 576.25 102.156Z" fill="#535461"/>
<path d="M571.046 379.632C571.046 379.632 581.45 376.11 586.455 385.268C587.776 387.751 588.448 390.527 588.409 393.339C588.37 396.151 587.621 398.907 586.232 401.353C582.957 407.29 576.169 415.002 563.302 414.315C552.414 413.732 548.791 405.431 547.808 397.706C547.431 394.81 547.805 391.866 548.893 389.155C549.982 386.445 551.748 384.059 554.024 382.226C556.299 380.393 559.008 379.174 561.89 378.687C564.771 378.199 567.73 378.459 570.483 379.442L571.046 379.632Z" fill="#37ADCA"/>
<path opacity="0.1" d="M584.031 402.178C585.42 399.732 586.168 396.976 586.207 394.164C586.246 391.352 585.574 388.576 584.254 386.093C579.248 376.928 568.845 380.457 568.845 380.457L568.314 380.267C564.347 378.833 559.987 378.931 556.089 380.542C558.24 379.262 560.649 378.475 563.141 378.237C565.634 377.999 568.148 378.317 570.502 379.167L571.033 379.357C571.033 379.357 581.437 375.835 586.442 384.993C587.762 387.476 588.434 390.252 588.395 393.064C588.357 395.876 587.608 398.632 586.219 401.078C584.051 405.006 580.375 409.66 574.427 412.207C578.486 409.805 581.808 406.336 584.031 402.178Z" fill="white"/>
<path opacity="0.2" d="M576.418 384.038C576.418 384.038 572.559 387.068 563.197 384.038H576.418Z" fill="black"/>
<path d="M577.244 362.015C577.244 362.015 570.633 379.907 571.184 384.587L565.943 384.038C565.943 384.038 574.794 368.346 572.559 362.015H577.244Z" fill="#37ADCA"/>
<path opacity="0.2" d="M577.244 362.015C577.244 362.015 570.633 379.907 571.184 384.587L565.943 384.038C565.943 384.038 574.794 368.346 572.559 362.015H577.244Z" fill="black"/>
<path d="M550.258 363.508C550.258 363.508 560.662 358.192 565.327 362.585C569.991 366.978 570.699 378.205 570.699 378.205C570.699 378.205 553.724 380.542 550.258 363.508Z" fill="#37ADCA"/>
<path opacity="0.1" d="M550.258 363.508C550.258 363.508 560.662 358.192 565.327 362.585C569.991 366.978 570.699 378.205 570.699 378.205C570.699 378.205 553.724 380.542 550.258 363.508Z" fill="white"/>
<path d="M570.692 378.205C570.692 378.205 567.96 365.171 550.258 363.508" stroke="#37ADCA" stroke-miterlimit="10"/>
</g>
<defs>
<linearGradient id="paint0_linear" x1="358.081" y1="462.103" x2="358.081" y2="43.1866" gradientUnits="userSpaceOnUse">
<stop stop-color="#808080" stop-opacity="0.25"/>
<stop offset="0.54" stop-color="#808080" stop-opacity="0.12"/>
<stop offset="1" stop-color="#808080" stop-opacity="0.1"/>
</linearGradient>
<clipPath id="clip0">
<rect width="747" height="508" fill="white" transform="matrix(-1 0 0 1 747 0)"/>
</clipPath>
</defs>
</svg>
