<svg width="679" height="509" viewBox="0 0 679 509" fill="none" xmlns="http://www.w3.org/2000/svg">
<path opacity="0.1" d="M213.416 0.704721C243.268 -0.739567 273.636 -0.497791 302.464 6.62185C331.292 13.7415 358.707 28.3943 375.113 50.8667C384.506 63.7317 390.112 78.7981 401.052 90.6323C420.029 111.151 451.046 118.201 479.67 125.276C546.89 141.819 614.486 165.723 663.246 210.502C670.246 216.922 677.068 224.245 678.652 233.121C681.083 246.768 670.38 259.538 658.505 268.273C646.63 277.009 632.579 283.938 623.79 295.27C612.584 309.719 611.954 328.813 615.136 346.169C618.317 363.526 624.866 380.413 626.59 397.96C627.017 402.287 627.119 406.798 625.241 410.8C622.753 416.106 617.223 419.707 611.801 422.736C592.578 433.524 571.836 441.346 550.276 445.94C513.131 453.899 474.394 452.404 436.364 455.675C398.334 458.945 287.233 441.066 260.506 465.587C244.113 480.622 229.323 502.553 205.949 501.809C192.852 501.395 181.283 493.391 168.218 492.501C153.511 491.495 140.218 499.499 126.351 504.061C106.655 510.551 83.8472 509.921 65.3796 500.976C46.9119 492.03 33.5034 474.508 32.4216 455.675C30.3702 419.845 157.014 406.535 84.4284 254.11C57.9233 198.451 30.5718 137.518 48.2059 79.0844C68.6781 11.311 147.977 3.87325 213.416 0.704721Z" fill="#37ADCA"/>
<path d="M139.627 198.406C105.525 198.563 77.7666 199.067 77.7666 199.067C77.7666 199.067 110.761 155.339 139.503 171.54C168.245 187.741 201.263 198.498 201.263 198.498C201.263 198.498 173.73 198.249 139.627 198.406Z" fill="#F2F2F2"/>
<path d="M522.01 211.4C525.955 211.4 529.153 208.2 529.153 204.252C529.153 200.305 525.955 197.105 522.01 197.105C518.064 197.105 514.866 200.305 514.866 204.252C514.866 208.2 518.064 211.4 522.01 211.4Z" fill="#FF6584"/>
<path d="M523.128 254.623L469.713 315.993L471.361 317.43L524.776 256.059L523.128 254.623Z" fill="#3F3D56"/>
<path d="M523.953 266.849C530.305 266.849 535.455 261.697 535.455 255.341C535.455 248.985 530.305 243.833 523.953 243.833C517.6 243.833 512.451 248.985 512.451 255.341C512.451 261.697 517.6 266.849 523.953 266.849Z" fill="#3F3D56"/>
<path d="M491.032 293.165C491.032 293.165 513.002 265.419 484.901 246.386L491.032 293.165Z" fill="#3F3D56"/>
<path d="M132.54 341.884C172.105 415.299 256.076 446.815 256.076 446.815C256.076 446.815 275.9 359.301 236.335 285.886C196.77 212.47 112.798 180.955 112.798 180.955C112.798 180.955 92.9746 268.469 132.54 341.884Z" fill="#3F3D56"/>
<path d="M159.734 317.731C231.166 360.73 258.676 446.137 258.676 446.137C258.676 446.137 170.373 461.83 98.942 418.831C27.5105 375.832 0 290.425 0 290.425C0 290.425 88.3028 274.732 159.734 317.731Z" fill="#37ADCA"/>
<path d="M443.946 318.339C372.137 360.704 343.873 445.865 343.873 445.865C343.873 445.865 432.034 462.338 503.842 419.973C575.651 377.608 603.916 292.447 603.916 292.447C603.916 292.447 515.755 275.974 443.946 318.339Z" fill="#3F3D56"/>
<path d="M469.109 344.605C428.896 417.667 344.649 448.438 344.649 448.438C344.649 448.438 325.6 360.752 365.813 287.69C406.025 214.628 490.272 183.856 490.272 183.856C490.272 183.856 509.321 271.543 469.109 344.605Z" fill="#37ADCA"/>
<path d="M323.176 143.513C319.025 139.756 316.437 134.577 315.923 129.001C315.41 123.425 317.009 117.859 320.404 113.408C319.954 113.829 319.515 114.267 319.095 114.732C317.129 116.907 315.611 119.449 314.627 122.211C313.643 124.973 313.212 127.903 313.359 130.832C313.657 136.747 316.291 142.301 320.681 146.273C325.072 150.245 330.86 152.31 336.772 152.012C339.699 151.864 342.569 151.142 345.217 149.885C347.865 148.628 350.24 146.861 352.205 144.686C352.626 144.22 353.017 143.739 353.391 143.25C349.305 147.076 343.931 149.227 338.335 149.276C332.739 149.324 327.328 147.267 323.176 143.513Z" fill="#2F2E41"/>
<path d="M302.96 159.362C328.346 159.362 348.926 138.771 348.926 113.37C348.926 87.97 328.346 67.3789 302.96 67.3789C277.573 67.3789 256.993 87.97 256.993 113.37C256.993 138.771 277.573 159.362 302.96 159.362Z" fill="#2F2E41"/>
<path d="M290.333 172.465L291.695 168.921L266.903 189.91L236.936 206.81C236.936 206.81 221.68 147.932 220.59 146.842C219.5 145.752 199.885 104.319 191.167 123.945C182.449 143.571 208.058 155.019 208.058 155.019C208.058 155.019 208.875 226.708 235.029 226.163C261.182 225.618 293.602 201.903 294.147 199.723C294.692 197.542 290.333 172.465 290.333 172.465Z" fill="#FFB8B8"/>
<path d="M297.416 160.471C312.462 160.471 324.659 148.267 324.659 133.213C324.659 118.159 312.462 105.955 297.416 105.955C282.37 105.955 270.173 118.159 270.173 133.213C270.173 148.267 282.37 160.471 297.416 160.471Z" fill="#FFB8B8"/>
<path d="M302.865 152.839C302.865 152.839 309.948 162.106 307.768 163.197C305.589 164.287 293.057 164.832 285.429 174.1C277.801 183.368 294.692 206.81 294.692 206.81L358.986 163.742L332.832 155.019C332.832 155.019 314.852 145.206 315.397 134.848L302.865 152.839Z" fill="#FFB8B8"/>
<path d="M389.648 449.27H317.053C312.941 419.187 311.04 391.619 311.04 391.619C311.04 391.619 309.979 419.349 307.156 449.27H213.891C227.112 360.673 289.787 264.6 289.787 264.6C289.787 264.6 290.332 251.512 291.968 249.33C293.604 247.155 282.705 246.609 277.797 230.255C274.805 220.272 277.495 213.739 280.052 210.17C280.93 208.884 282.01 207.749 283.25 206.808C283.25 206.808 284.341 195.365 283.25 193.728C283.11 193.514 284.186 192.762 286.176 191.619C287.834 190.661 290.126 189.429 292.867 188.014C308.571 179.866 338.969 165.452 349.382 160.541C351.667 159.457 352.993 158.838 352.993 158.838L371.519 165.378C386.228 170.281 386.228 201.359 386.228 201.359L385.396 202.628L363.163 236.323L350.266 255.877C353.538 258.052 347.002 271.685 347.002 271.685C347.002 271.685 356.317 285.075 363.892 305.514C368.176 316.889 371.097 328.732 372.595 340.795C373.55 348.613 373.738 356.505 373.155 364.36C371.136 390.623 380.112 422.542 389.648 449.27Z" fill="#2F2E41"/>
<path d="M371.78 168.591C371.176 168.251 370.506 168.048 369.815 167.994C369.124 167.941 368.43 168.039 367.781 168.282C367.132 168.525 366.544 168.906 366.058 169.4C365.572 169.894 365.199 170.488 364.966 171.141C363.325 175.655 361.663 185.064 362.255 204.629C363.345 240.61 363.89 265.142 363.89 265.142V319.658C363.89 319.658 339.916 371.993 352.992 371.993C366.069 371.993 375.332 330.561 375.332 330.561C375.332 330.561 387.319 267.868 383.505 256.964C383.505 256.964 394.259 181.641 371.78 168.591Z" fill="#FFB8B8"/>
<path d="M294.218 124.977C307.132 124.977 317.6 117.835 317.6 109.026C317.6 100.217 307.132 93.0752 294.218 93.0752C281.305 93.0752 270.836 100.217 270.836 109.026C270.836 117.835 281.305 124.977 294.218 124.977Z" fill="#2F2E41"/>
<path d="M331.349 96.5143C343.676 96.5143 353.668 86.5163 353.668 74.1832C353.668 61.85 343.676 51.852 331.349 51.852C319.023 51.852 309.03 61.85 309.03 74.1832C309.03 86.5163 319.023 96.5143 331.349 96.5143Z" fill="#2F2E41"/>
<path d="M347.292 90.134C341.695 90.1332 336.303 88.0284 332.184 84.2369C328.066 80.4454 325.522 75.244 325.056 69.6637C325.005 70.2779 324.973 70.8974 324.973 71.5247C324.973 77.4473 327.324 83.1273 331.51 87.3152C335.695 91.5031 341.372 93.8558 347.292 93.8558C353.211 93.8558 358.888 91.5031 363.074 87.3152C367.259 83.1273 369.611 77.4473 369.611 71.5247C369.611 70.8974 369.578 70.278 369.528 69.6637C369.062 75.244 366.517 80.4454 362.399 84.2369C358.28 88.0284 352.888 90.1332 347.292 90.134Z" fill="#2F2E41"/>
<path d="M324.037 128.46C325.062 128.215 325.439 126.117 324.88 123.775C324.32 121.432 323.036 119.731 322.012 119.976C320.988 120.221 320.611 122.318 321.17 124.661C321.729 127.004 323.013 128.705 324.037 128.46Z" fill="#FFB8B8"/>
<path d="M323.842 128.034C324.444 128.034 324.932 127.546 324.932 126.944C324.932 126.341 324.444 125.853 323.842 125.853C323.24 125.853 322.752 126.341 322.752 126.944C322.752 127.546 323.24 128.034 323.842 128.034Z" fill="#F2F2F2"/>
<path d="M64.7894 220.331C63.0404 220.331 61.3307 219.812 59.8764 218.84C58.4222 217.867 57.2888 216.486 56.6194 214.869C55.9501 213.252 55.775 211.473 56.1162 209.757C56.4574 208.04 57.2997 206.464 58.5364 205.226C59.7731 203.989 61.3488 203.146 63.0642 202.805C64.7796 202.464 66.5576 202.639 68.1735 203.308C69.7894 203.978 71.1705 205.112 72.1422 206.567C73.1139 208.022 73.6325 209.733 73.6325 211.483C73.6299 213.829 72.6973 216.078 71.0395 217.736C69.3817 219.395 67.1339 220.328 64.7894 220.331ZM64.7894 204.11C63.3319 204.11 61.9071 204.542 60.6953 205.352C59.4834 206.162 58.5389 207.314 57.9811 208.661C57.4233 210.008 57.2774 211.491 57.5617 212.921C57.8461 214.352 58.5479 215.665 59.5785 216.697C60.6092 217.728 61.9222 218.43 63.3517 218.714C64.7812 218.999 66.2629 218.853 67.6095 218.295C68.956 217.737 70.107 216.792 70.9167 215.579C71.7264 214.367 72.1586 212.941 72.1586 211.483C72.1564 209.528 71.3793 207.654 69.9978 206.272C68.6162 204.889 66.7431 204.112 64.7894 204.11Z" fill="#3F3D56"/>
<path d="M447.621 155.815H428.461V136.644H447.621V155.815ZM429.935 154.34H446.148V138.119H429.935V154.34Z" fill="#3F3D56"/>
<path d="M612.733 258.867C578.63 259.024 550.872 259.528 550.872 259.528C550.872 259.528 583.867 215.799 612.609 232C641.351 248.202 674.368 258.958 674.368 258.958C674.368 258.958 646.835 258.709 612.733 258.867Z" fill="#F2F2F2"/>
<path d="M508.09 111.402C473.987 111.559 446.229 112.063 446.229 112.063C446.229 112.063 479.224 68.3342 507.966 84.5354C536.708 100.737 569.725 111.493 569.725 111.493C569.725 111.493 542.192 111.244 508.09 111.402Z" fill="#F2F2F2"/>
<path d="M184.84 130.28L105.985 89.7096C103.399 88.3791 101.447 86.0754 100.559 83.3051C99.6705 80.5349 99.9185 77.525 101.248 74.9377L119.826 38.7903C120.095 38.2653 120.469 37.8009 120.924 37.4253C121.379 37.0497 121.906 36.7707 122.472 36.6055L184.626 18.473C187.111 17.748 189.779 18.0041 192.081 19.1884C194.383 20.3728 196.143 22.3952 197 24.8393L217.421 83.1229C217.931 84.5788 218.139 86.1236 218.033 87.6627C217.927 89.2019 217.509 90.7034 216.803 92.0754L199.604 125.541C198.946 126.822 198.042 127.961 196.944 128.893C195.845 129.824 194.574 130.53 193.203 130.97C191.832 131.41 190.388 131.576 188.953 131.457C187.518 131.339 186.121 130.939 184.84 130.28Z" fill="#F2F2F2"/>
<path opacity="0.1" d="M187.974 115.954L108.353 81.9437C105.787 80.6238 108.193 82.6526 109.512 80.0858L119.521 39.3838L217.057 89.5655L192.399 120.072C191.08 122.638 190.539 117.274 187.974 115.954Z" fill="black"/>
<path d="M145.532 20.2799L113.749 82.1216C112.226 85.0861 113.393 88.725 116.355 90.2494L178.164 122.049C181.127 123.574 184.763 122.406 186.287 119.442L218.07 57.5999C219.593 54.6355 218.426 50.9965 215.463 49.4722L153.655 17.6724C150.692 16.148 147.055 17.3154 145.532 20.2799Z" fill="#37ADCA"/>
<path opacity="0.1" d="M204.027 84.9224L183.528 124.809L110.991 87.489L131.49 47.6027L158.745 83.8024L204.027 84.9224Z" fill="black"/>
<path d="M157.585 86.0573L122.663 39.6742C122.447 39.3873 122.162 39.16 121.834 39.0136C121.507 38.8671 121.147 38.8064 120.789 38.837C120.432 38.8676 120.087 38.9886 119.789 39.1886C119.491 39.3886 119.249 39.6611 119.084 39.9805L99.2123 78.6473C98.8147 79.4208 98.5733 80.2652 98.5019 81.1321C98.4304 81.999 98.5304 82.8715 98.796 83.6998C99.0615 84.5281 99.4876 85.2959 100.05 85.9594C100.612 86.623 101.299 87.1692 102.072 87.567L188.653 132.112C189.427 132.51 190.271 132.752 191.137 132.823C192.003 132.895 192.875 132.795 193.703 132.529C194.531 132.263 195.299 131.837 195.962 131.274C196.625 130.712 197.171 130.024 197.568 129.251L217.1 91.2463C217.3 90.8565 217.399 90.4222 217.385 89.9841C217.372 89.546 217.248 89.1185 217.024 88.7415C216.801 88.3646 216.485 88.0506 216.107 87.8291C215.729 87.6075 215.301 87.4856 214.863 87.4747L157.585 86.0573Z" fill="#F2F2F2"/>
<path d="M171.402 35.2278L151.116 24.7908L149.641 27.6611L169.927 38.098L171.402 35.2278Z" fill="#F2F2F2"/>
<path d="M204.346 65.398L144.103 34.4034L143.26 36.0436L203.503 67.0382L204.346 65.398Z" fill="#F2F2F2"/>
<path d="M201.501 70.9336L141.258 39.939L140.415 41.5791L200.658 72.5737L201.501 70.9336Z" fill="#F2F2F2"/>
<path d="M198.656 76.4691L138.413 45.4745L137.57 47.1147L197.813 78.1093L198.656 76.4691Z" fill="#F2F2F2"/>
<path d="M159.076 21.9062C161.466 17.2553 159.642 11.5499 155.002 9.16269C150.362 6.77551 144.663 8.61057 142.273 13.2614C139.883 17.9123 141.707 23.6177 146.347 26.0049C150.986 28.3921 156.685 26.557 159.076 21.9062Z" fill="white"/>
<path d="M155.74 7.72754C153.754 6.70585 151.51 6.29629 149.291 6.55065C147.073 6.80501 144.98 7.71188 143.276 9.15656C141.573 10.6012 140.336 12.5188 139.722 14.6669C139.108 16.8149 139.144 19.0969 139.826 21.2243C140.508 23.3517 141.806 25.229 143.554 26.6187C145.303 28.0084 147.424 28.8481 149.649 29.0316C151.875 29.2152 154.104 28.7344 156.057 27.6499C158.009 26.5655 159.596 24.9262 160.617 22.9393C161.978 20.2733 162.228 17.1771 161.314 14.3269C160.4 11.4767 158.396 9.10415 155.74 7.72754ZM145.763 22.0693L143.263 14.2733L145.449 13.5717L147.25 19.1884L159.098 15.3851L159.799 17.5718L145.763 22.0693Z" fill="#57B894"/>
</svg>
